HIERARCHY
ROOT Hips
{
	OFFSET 0.00 0.00 0.00
	CHANNELS 6 Xposition Yposition Zposition Xrotation Yrotation Zrotation
	JOINT Spine
	{
		OFFSET 0.00000 3.24121 0.00000
		CHANNELS 3 Xrotation Yrotation Zrotation
		JOINT Head
		{
			OFFSET 0.00000 18.38296 0.00000
			CHANNELS 3 Xrotation Yrotation Zrotation
			End Site
			{
				OFFSET 0.00000 4.52755 0.00000
			}
		}
		JOINT LeftShoulder
		{
			OFFSET 0.00000 12.82826 0.00000
			CHANNELS 3 Xrotation Yrotation Zrotation
			JOINT LeftArm
			{
				OFFSET 7.74805 0.00000 0.00000
				CHANNELS 3 Xrotation Yrotation Zrotation
				JOINT LeftForeArm
				{
					OFFSET 10.63561 0.00000 0.00000
					CHANNELS 3 Yrotation Zrotation Xrotation
					JOINT LeftHand
					{
						OFFSET 8.34675 0.00000 0.00000
						CHANNELS 3 Xrotation Yrotation Zrotation
						JOINT LeftHandThumb1
						{
							OFFSET 0.00000 0.00000 0.00000
							CHANNELS 3 Xrotation Zrotation Yrotation
							End Site
							{
								OFFSET 0.00000 0.00000 3.93700
							}
						}
						End Site
						{
							OFFSET 3.93700 0.00000 0.00000
						}
					}
				}
			}
		}
		JOINT RightShoulder
		{
			OFFSET 0.00000 12.82826 0.00000
			CHANNELS 3 Xrotation Yrotation Zrotation
			JOINT RightArm
			{
				OFFSET -7.74805 0.00000 0.00000
				CHANNELS 3 Xrotation Yrotation Zrotation
				JOINT RightForeArm
				{
					OFFSET -10.63561 0.00000 0.00000
					CHANNELS 3 Yrotation Zrotation Xrotation
					JOINT RightHand
					{
						OFFSET -8.34675 0.00000 0.00000
						CHANNELS 3 Xrotation Yrotation Zrotation
						JOINT RightHandThumb1
						{
							OFFSET 0.00000 0.00000 0.00000
							CHANNELS 3 Xrotation Zrotation Yrotation
							End Site
							{
								OFFSET 0.00000 0.00000 3.93700
							}
						}
						End Site
						{
							OFFSET -3.93700 0.00000 0.00000
						}
					}
				}
			}
		}
	}
	JOINT LeftUpLeg
	{
		OFFSET 3.43402 0.00000 0.00000
		CHANNELS 3 Xrotation Yrotation Zrotation
		JOINT LeftLeg
		{
			OFFSET 0.00000 -15.71302 0.00000
			CHANNELS 3 Xrotation Yrotation Zrotation
			JOINT LeftFoot
			{
				OFFSET 0.00000 -14.43512 0.00000
				CHANNELS 3 Xrotation Yrotation Zrotation
				JOINT LeftToeBase
				{
					OFFSET 0.00000 -1.27828 4.77061
					CHANNELS 3 Xrotation Yrotation Zrotation
					End Site
					{
						OFFSET 0.00000 0.00000 2.95275
					}
				}
			}
		}
	}
	JOINT RightUpLeg
	{
		OFFSET -3.43402 0.00000 0.00000
		CHANNELS 3 Xrotation Yrotation Zrotation
		JOINT RightLeg
		{
			OFFSET 0.00000 -15.71302 0.00000
			CHANNELS 3 Xrotation Yrotation Zrotation
			JOINT RightFoot
			{
				OFFSET 0.00000 -14.43512 0.00000
				CHANNELS 3 Xrotation Yrotation Zrotation
				JOINT RightToeBase
				{
					OFFSET 0.00000 -1.27828 4.77061
					CHANNELS 3 Xrotation Yrotation Zrotation
					End Site
					{
						OFFSET 0.00000 0.00000 2.95275
					}
				}
			}
		}
	}
}
MOTION
Frames: 9
Frame Time: 0.008333
 2.3862 34.6908 -5.4194 37.9203 -40.6624 -27.1574 -52.2099 12.7172 29.6967 1.2463 -3.2747 19.3923 -0.4263 24.8322 42.7600 -75.8366 -47.4876 2.2566 -5.4169 0.0000 98.1388 -16.4449 7.8368 65.2057 33.1476 -0.0000 26.2537 3.4724 -11.6089 -19.6401 -115.4168 -40.9341 30.3281 63.6639 0.0000 -48.4592 0.1024 -0.2271 24.2773 32.8623 0.0000 -24.3270 -47.6029 -1.2232 40.5958 18.7921 -0.0000 0.0000 -13.6925 17.4559 14.1187 -0.5554 -0.0000 0.0000 -149.4269 22.2244 -60.7159 -5.4170 0.0000 -0.0000 35.6992 -16.7805 20.4271 33.0605 0.0000 0.0000
 2.3839 34.6910 -5.4120 37.8895 -40.7033 -27.2559 -52.1418 12.6239 29.6931 1.1643 -3.2701 19.4901 -0.4939 24.8349 42.8031 -76.0341 -47.5711 2.1814 -5.4197 0.0000 98.1704 -16.3531 7.8042 65.1667 33.1476 -0.0000 26.2537 3.4565 -11.5648 -19.6290 -115.4881 -40.9357 30.2488 63.5585 0.0000 -48.5824 0.0935 -0.2068 24.3312 32.8623 0.0000 -24.3270 -47.6379 -1.2150 40.7048 18.8512 -0.0000 0.0000 -13.8828 17.4804 13.7900 -0.1859 0.0000 -0.0000 -149.3992 22.2274 -60.7895 -5.3201 0.0000 -0.0000 35.7337 -16.8514 20.3783 33.0302 0.0000 -0.0000
 2.3803 34.6904 -5.4049 37.8586 -40.7566 -27.3036 -52.0896 12.5816 29.6606 1.1166 -3.2563 19.5895 -0.5519 24.8050 42.8507 -76.3665 -47.6407 1.9855 -5.5478 0.0000 98.1526 -16.4415 7.8513 65.1608 33.1476 -0.0000 26.2537 3.5329 -11.5672 -19.5886 -115.5904 -40.9251 30.2073 63.4723 0.0000 -48.6900 0.0611 -0.1353 24.2954 32.8623 0.0000 -24.3270 -47.6550 -1.1933 40.7838 18.9179 -0.0000 -0.0000 -13.9927 17.5246 13.6558 -0.0840 -0.0000 0.0000 -149.3839 22.2590 -60.8145 -5.2171 0.0000 -0.0000 35.7689 -16.9262 20.2729 33.0723 0.0000 0.0000
 2.3771 34.6910 -5.3970 37.8078 -40.8019 -27.3792 -52.0236 12.5188 29.6363 1.0936 -3.2321 19.7157 -0.6625 24.7787 42.9441 -76.5705 -47.6690 1.7845 -5.7422 0.0000 97.9253 -16.4261 7.8523 65.1363 33.1476 -0.0000 26.2537 3.6034 -11.5358 -19.5396 -115.6758 -40.8887 30.1475 63.4375 0.0000 -48.6040 0.0315 -0.0702 24.1359 32.8623 0.0000 -24.3270 -47.6547 -1.2031 40.8749 19.0144 0.0000 -0.0000 -14.1189 17.5929 13.4135 0.0970 0.0000 0.0000 -149.3311 22.2767 -60.8670 -5.1487 0.0000 -0.0000 35.8318 -16.9880 20.1942 33.0961 -0.0000 0.0000
 2.3753 34.6917 -5.3895 37.7809 -40.8612 -27.4121 -51.9925 12.5026 29.5953 1.0849 -3.2525 19.8530 -0.7169 24.7609 42.9968 -76.7585 -47.7534 1.6501 -5.8530 0.0000 97.9063 -16.2974 7.8184 65.0485 33.1476 -0.0000 26.2537 3.6526 -11.5258 -19.4882 -115.7372 -40.8362 30.0619 63.3736 0.0000 -48.6522 0.0224 -0.0501 24.1036 32.8623 0.0000 -24.3270 -47.6780 -1.2020 40.9439 19.1256 -0.0000 -0.0000 -14.2208 17.6863 13.1743 0.1740 0.0000 0.0000 -149.2917 22.2941 -60.9020 -5.1157 0.0000 -0.0000 35.8740 -17.0083 20.2653 33.1887 -0.0000 0.0000
 2.3747 34.6932 -5.3826 37.7599 -40.9432 -27.4254 -51.9804 12.5055 29.5639 1.0865 -3.2520 19.9823 -0.7523 24.7504 43.0399 -76.9330 -47.8467 1.5236 -5.9796 0.0000 98.1085 -16.5175 7.8810 65.1853 33.1476 -0.0000 26.2537 3.6917 -11.5351 -19.4295 -115.7707 -40.7682 30.0302 63.2879 0.0000 -48.6537 -0.0112 0.0251 24.1255 32.8623 0.0000 -24.3270 -47.7391 -1.1575 41.0168 19.2428 0.0000 -0.0000 -14.3045 17.7600 12.9497 0.2419 0.0000 0.0000 -149.2224 22.3121 -60.9308 -5.1182 0.0000 -0.0000 35.8649 -17.0313 20.3353 33.3318 -0.0000 -0.0000
 2.3732 34.6937 -5.3738 37.7333 -41.0223 -27.4212 -51.9698 12.5352 29.5233 1.1195 -3.3015 20.0571 -0.7715 24.7630 43.0696 -76.9982 -47.9199 1.4661 -6.1714 0.0000 98.0255 -16.4851 7.8709 65.1679 33.1476 -0.0000 26.2537 3.6577 -11.5252 -19.3907 -115.7599 -40.7096 29.9728 63.2224 0.0000 -48.7080 0.0029 -0.0064 24.1963 32.8623 0.0000 -24.3270 -47.8219 -1.0628 41.0787 19.3600 -0.0000 0.0000 -14.4013 17.8015 12.7093 0.3137 -0.0000 0.0000 -149.1801 22.3315 -60.9490 -5.1289 0.0000 0.0000 35.8895 -16.9775 20.5912 33.3729 0.0000 -0.0000
 2.3741 34.6952 -5.3663 37.7038 -41.1177 -27.4022 -51.9770 12.5893 29.5038 1.2055 -3.3467 20.0630 -0.6911 24.7714 43.0241 -77.0861 -48.0198 1.4635 -6.3340 0.0000 98.1176 -16.5414 7.8945 65.1815 33.1476 -0.0000 26.2537 3.6693 -11.5535 -19.3660 -115.7215 -40.6574 29.9690 63.2324 0.0000 -48.7120 0.0077 -0.0170 24.2160 32.8623 0.0000 -24.3270 -47.9522 -0.8974 41.1480 19.4697 0.0000 -0.0000 -14.4769 17.7857 12.4730 0.3371 -0.0000 0.0000 -149.1502 22.3412 -60.9384 -5.1661 -0.0000 0.0000 35.9331 -16.9006 20.6019 33.2682 0.0000 -0.0000
 2.3751 34.6982 -5.3592 37.6885 -41.2195 -27.3779 -51.9944 12.6461 29.4847 1.2348 -3.3630 20.0990 -0.5995 24.7724 42.9650 -76.9628 -48.1110 1.6363 -6.5022 0.0000 98.2013 -16.5939 7.9090 65.2149 33.1476 -0.0000 26.2537 3.6417 -11.5808 -19.3571 -115.6669 -40.6234 29.9482 63.2075 0.0000 -48.8070 0.0012 -0.0027 24.1760 32.8623 0.0000 -24.3270 -48.1029 -0.6899 41.2261 19.5286 0.0000 0.0000 -14.5401 17.7228 12.2722 0.4308 0.0000 -0.0000 -149.1393 22.3467 -60.9288 -5.2025 0.0000 -0.0000 35.9642 -16.8541 20.6296 33.0947 0.0000 0.0000
